<svg data-bbox="0 -30 826 263" xmlns="http://www.w3.org/2000/svg" viewBox="0 0 790 220" height="50" width="130"  data-type="ugc" aria-hidden="true" aria-labelledby="svgcid--4ssaar9x3u6k"><path fill="url(#YoodliTextLogo_svg__a)" d="M149.194 82.786c-2.896-8.722-12.549-13.465-21.72-10.71-5.148 1.53-9.17 5.202-10.94 9.945 9.814 5.815 20.272 10.405 31.051 14.078 2.574-3.979 3.057-8.875 1.609-13.313z"></path><path fill="#6966FD" d="M149.194 82.786c-2.896-8.722-12.549-13.465-21.72-10.71-5.148 1.53-9.17 5.202-10.94 9.945 9.814 5.815 20.272 10.405 31.051 14.078 2.574-3.979 3.057-8.875 1.609-13.313z"></path><path fill="url(#YoodliTextLogo_svg__b)" d="M115.248 95.027c.16.612.482 1.224.804 1.836l-1.931 4.438 12.871 6.426c1.931.919 3.701 1.837 5.47 2.755l3.057-4.438c.483-.153.966-.153 1.287-.306 3.057-.918 5.631-2.601 7.723-4.743a174.996 174.996 0 0 1-29.925-13.772 14.536 14.536 0 0 0 .644 7.804z"></path><path fill="#6966FD" d="M115.248 95.027c.16.612.482 1.224.804 1.836l-1.931 4.438 12.871 6.426c1.931.919 3.701 1.837 5.47 2.755l3.057-4.438c.483-.153.966-.153 1.287-.306 3.057-.918 5.631-2.601 7.723-4.743a174.996 174.996 0 0 1-29.925-13.772c-.483 2.602-.322 5.203.644 7.804z"></path><path fill="url(#YoodliTextLogo_svg__c)" d="m111.224 105.892-8.527 20.045v.153l-38.934 74.518c-1.127 3.366-4.827 5.203-8.366 4.285l-.322-.153c-3.057-.766-4.827-3.673-4.023-6.427.161-.306.161-.612.322-.918l73.204-143.682c4.987-9.793.643-21.575-9.653-26.318-.644-.306-1.448-.612-2.092-.765l-.483-.153c-9.975-3.367-20.915.918-25.58 9.945l-39.579 77.12c-2.896 5.662-9.975 7.957-15.928 5.203-5.47-2.448-8.044-8.569-5.952-13.925.16-.459.321-.765.482-1.224l37.004-71.305c4.988-9.793.805-21.575-9.492-26.319-9.975-4.59-22.042-.918-27.35 8.416l-25.1 45.14c-1.93 3.52-.482 7.804 3.219 9.64 3.7 1.836 8.205.459 10.135-2.908l25.099-45.139c1.448-2.601 4.826-3.52 7.562-2.142 2.574 1.224 3.7 4.131 2.574 6.58l-.161.458-37.004 71.306c-6.758 12.547-1.61 28.155 11.744 34.581 13.193 6.427 29.604 1.53 36.361-11.17l.483-.918 39.578-77.273a5.732 5.732 0 0 1 6.918-2.754l.483.153c2.896.918 4.504 3.978 3.378 6.733 0 .153-.161.306-.321.459L37.699 190.662c-2.735 5.356-2.735 11.476-.161 16.832 2.413 5.202 7.24 9.181 13.032 10.711 2.091.612 4.344 1.071 6.757 1.071 8.849.153 16.732-4.897 20.111-12.7l38.774-74.213 12.227-17.903c-5.792-2.601-11.423-5.508-17.215-8.568z"></path><path fill="url(#YoodliTextLogo_svg__d)" d="m111.224 105.892-8.527 20.045v.153l-39.095 74.518c-1.127 3.366-4.827 5.203-8.366 4.132l-.322-.154c-3.057-.765-4.827-3.672-4.022-6.426.16-.306.16-.612.321-.918l73.365-143.529c4.987-9.793.643-21.575-9.653-26.318-.644-.306-1.448-.612-2.092-.765l-.483-.153c-9.975-3.367-20.915.918-25.58 9.945l-39.579 77.12c-2.896 5.662-9.975 7.957-15.928 5.203-5.47-2.448-8.044-8.569-5.952-13.925.16-.459.321-.765.482-1.224l37.004-71.305c4.988-9.793.805-21.575-9.492-26.319-9.975-4.59-22.042-.918-27.35 8.416l-25.1 45.14c-1.93 3.52-.482 7.804 3.219 9.64 3.7 1.836 8.205.459 10.135-2.908l25.099-45.139c1.448-2.601 4.826-3.52 7.562-2.142 2.574 1.224 3.7 4.131 2.574 6.58 0 .152-.161.305-.161.458L12.279 97.323c-6.758 12.547-1.61 28.155 11.744 34.581 13.193 6.427 29.604 1.53 36.361-11.17l.483-.918 39.578-77.273a5.732 5.732 0 0 1 6.918-2.754l.483.153c2.896.918 4.504 3.978 3.378 6.733 0 .153-.161.306-.321.459L37.699 190.662c-2.735 5.356-2.735 11.476-.161 16.832 2.413 5.202 7.24 9.181 13.032 10.711 2.091.612 4.344 1.071 6.757 1.071 8.849.153 16.732-4.897 20.111-12.7l38.774-74.213 12.227-17.903c-5.792-2.601-11.584-5.661-17.215-8.568z"></path><mask height="189" width="595" y="0" x="195" maskUnits="userSpaceOnUse" style="mask-type: alpha;" id="YoodliTextLogo_svg__e" fill="none"><path fill="#fff" d="M697.61 3.756c-9.042 48.156-17.755 95.374-26.632 142.749h-19.234c-.165-4.065-.494-7.974-.822-12.508-1.48 1.094-2.466 1.563-3.124 2.345-15.124 12.977-32.55 15.166-50.634 7.974-17.754-7.036-25.481-21.264-26.138-39.088-1.151-27.361 13.316-50.658 37.482-60.195 11.672-4.69 24.001-5.785 35.838-1.876 7.233 2.345 13.645 7.348 20.549 11.257 1.48-8.13 3.288-17.511 5.096-26.893 1.316-6.566 2.302-13.29 3.781-19.856.329-1.407 1.973-3.44 3.288-3.44 6.576-.625 13.152-.47 20.55-.47zm-38.633 86.463c-.493-12.509-2.795-23.297-15.289-28.3s-24.495-2.345-34.687 6.097c-11.672 10.007-15.618 22.828-14.138 37.525 2.466 24.078 24.823 27.674 40.441 20.795 16.44-7.036 22.358-20.951 23.673-36.117zM255.551 121.958c1.48-2.658 2.466-4.378 3.452-5.942 12.659-22.827 25.482-45.654 37.976-68.482 2.301-4.221 4.932-5.785 9.699-5.316 5.918.47 11.672.157 18.248.157-1.151 2.189-1.808 3.596-2.63 5.003-23.18 39.088-46.524 78.332-69.704 117.42-.329.469-.658.938-.822 1.407-7.891 15.792-20.221 24.079-39.455 21.89-5.26-.626-10.685-.157-16.439-.157l3.288-19.544c5.425 0 10.685-.156 15.946 0 6.083.469 11.836-2.501 14.96-7.505 5.096-7.348 8.384-14.384 5.918-24.078-7.069-29.238-12.823-58.788-19.234-88.182-.329-1.876-.658-3.909-1.151-6.254 7.398 0 14.303-.157 21.043.156 1.315 0 3.123 2.658 3.452 4.222 4.767 23.609 9.206 47.218 13.809 70.827.493 1.094.822 2.189 1.644 4.378zM380.162 40.968c33.537.156 54.908 23.765 50.305 54.254-4.439 28.612-20.385 45.811-48.003 51.596-27.783 5.785-52.935-5.629-60.662-28.612-9.535-27.987 4.11-71.453 51.456-76.77 2.63-.468 5.589-.468 6.904-.468zm-37.646 55.817c-.329 27.049 20.878 39.557 43.236 28.769 14.138-6.879 23.508-24.391 21.7-40.495-2.137-20.795-21.7-31.427-41.757-22.358-16.275 7.348-22.193 21.107-23.179 34.084zM444.935 101.319c.822-46.123 39.454-66.293 75.95-58.944 20.056 4.065 33.372 18.45 35.674 39.244 2.63 23.296-7.562 47.687-31.071 59.257-14.467 7.349-31.399 9.225-47.346 5.004-20.22-5.16-33.372-22.984-33.207-44.561zm88.609-13.133c.164-22.515-20.55-35.336-41.921-25.486-17.097 7.974-23.344 22.359-23.015 39.557.164 19.544 16.439 30.802 36.331 25.642 16.933-4.221 28.44-20.169 28.605-39.713zM716.844 146.505h-23.015c1.315-7.817 2.63-15.322 4.11-22.671 7.069-38.306 14.467-76.612 21.371-114.918.822-4.065 2.302-5.473 6.576-5.316 5.754.312 11.343 0 17.59 0-8.877 48-17.754 95.218-26.632 142.905zM739.695 146.505l19.07-103.974h23.344a19544.361 19544.361 0 0 0-19.399 103.974h-23.015zM790 12.668c-.164 7.818-6.905 14.072-15.124 14.072-7.891 0-13.152-5.004-13.152-12.196 0-7.974 6.905-14.54 15.289-14.54C783.917-.154 789.836 5.006 790 11.73v.938z"></path></mask><g mask="url(#YoodliTextLogo_svg__e)"><path fill="url(#YoodliTextLogo_svg__f)" d="M826-30v263H176V-30h650z"></path></g><defs fill="none"><linearGradient gradientUnits="userSpaceOnUse" y2="96.099" x2="133.267" y1="71.293" x1="133.267" id="YoodliTextLogo_svg__a"><stop stop-color="#6966FD" offset="0.573"></stop><stop stop-color="#1DA9E6" offset="1"></stop></linearGradient><linearGradient gradientUnits="userSpaceOnUse" y2="110.482" x2="129.325" y1="87.223" x1="129.325" id="YoodliTextLogo_svg__b"><stop stop-color="#6966FD" offset="0.573"></stop><stop stop-color="#1DA9E6" offset="1"></stop></linearGradient><linearGradient gradientUnits="userSpaceOnUse" y2="219.279" x2="64.22" y1="4" x1="64.22" id="YoodliTextLogo_svg__c"><stop stop-color="#6966FD" offset="0.573"></stop><stop stop-color="#1DA9E6" offset="1"></stop></linearGradient><linearGradient gradientUnits="userSpaceOnUse" y2="219.279" x2="64.22" y1="4" x1="64.22" id="YoodliTextLogo_svg__d"><stop stop-color="#6966FD" offset="0.443"></stop><stop stop-color="#1DA9E6" offset="1"></stop></linearGradient><linearGradient gradientUnits="userSpaceOnUse" y2="-278.934" x2="596.064" y1="342.833" x1="-110.237" id="YoodliTextLogo_svg__f"><stop stop-color="#1DA9E6"></stop><stop stop-color="#6966FE" offset="0.823"></stop></linearGradient></defs></svg>